<?xml version="1.0" encoding="utf-8"?>
<!-- Generator: Adobe Illustrator 16.0.0, SVG Export Plug-In . SVG Version: 6.00 Build 0)  -->
<!DOCTYPE svg PUBLIC "-//W3C//DTD SVG 1.1//EN" "http://www.w3.org/Graphics/SVG/1.1/DTD/svg11.dtd">
<svg version="1.1" id="Layer_1" xmlns="http://www.w3.org/2000/svg" xmlns:xlink="http://www.w3.org/1999/xlink" x="0px" y="0px"
	 width="566.929px" height="198.425px" viewBox="0 0 566.929 198.425" enable-background="new 0 0 566.929 198.425"
	 xml:space="preserve">
<g>
	<g>
		<path d="M44.865,150.942H27.597c-0.434,0-0.65-0.239-0.65-0.724c0-0.19,0.06-0.36,0.181-0.506c0.12-0.145,0.276-0.217,0.47-0.217
			c1.396,0,2.589-0.492,3.576-1.479c0.986-0.986,1.481-2.154,1.481-3.504V53.913c0-1.396-0.495-2.576-1.481-3.541
			c-0.987-0.963-2.18-1.445-3.576-1.445c-0.193,0-0.35-0.072-0.47-0.217c-0.121-0.145-0.181-0.313-0.181-0.505
			c0-0.241,0.06-0.434,0.181-0.578c0.12-0.145,0.276-0.217,0.47-0.217H79.11l2.313,8.453l1.517,6.141c0,0.434-0.217,0.65-0.65,0.65
			c-0.386,0-0.603-0.145-0.649-0.433c-0.482-1.83-1.458-3.66-2.927-5.491c-1.47-1.83-3.323-3.359-5.563-4.587
			c-2.24-1.229-4.781-1.843-7.622-1.843h-25.65v44.578h26.587c1.396,0,2.576-0.494,3.54-1.481c0.964-0.986,1.445-2.179,1.445-3.576
			c0-0.192,0.072-0.349,0.217-0.47c0.145-0.12,0.313-0.181,0.506-0.181c0.48,0,0.723,0.217,0.723,0.65v13.006
			c0,0.192-0.062,0.36-0.181,0.504c-0.121,0.146-0.302,0.217-0.542,0.217c-0.193,0-0.361-0.071-0.506-0.217
			c-0.145-0.145-0.217-0.313-0.217-0.504c0-1.396-0.481-2.59-1.445-3.578c-0.964-0.986-2.144-1.481-3.54-1.481H39.879v46.745
			c0,1.35,0.493,2.518,1.481,3.504c0.986,0.987,2.154,1.479,3.504,1.479c0.24,0,0.421,0.072,0.542,0.217
			c0.119,0.146,0.18,0.314,0.18,0.506C45.586,150.653,45.345,150.895,44.865,150.942z"/>
		<path d="M105.77,150.942H88.502c-0.434,0-0.675-0.239-0.723-0.724c0-0.434,0.24-0.674,0.723-0.723
			c1.396,0,2.589-0.492,3.576-1.479c0.986-0.986,1.481-2.179,1.481-3.576V53.913c0-1.396-0.495-2.589-1.481-3.577
			c-0.987-0.986-2.18-1.481-3.576-1.481c-0.434,0-0.675-0.24-0.723-0.722c0-0.192,0.072-0.361,0.217-0.506s0.313-0.217,0.506-0.217
			h17.268c0.191,0,0.361,0.072,0.506,0.217c0.144,0.145,0.216,0.314,0.216,0.506c0,0.193-0.072,0.361-0.216,0.505
			c-0.145,0.145-0.314,0.217-0.506,0.217c-1.397,0-2.59,0.495-3.576,1.481c-0.988,0.988-1.481,2.18-1.481,3.577v90.527
			c0,1.397,0.493,2.59,1.481,3.576c0.986,0.987,2.179,1.479,3.576,1.479c0.191,0,0.361,0.063,0.506,0.183
			c0.144,0.12,0.216,0.301,0.216,0.541c0,0.192-0.072,0.36-0.216,0.506C106.131,150.871,105.961,150.942,105.77,150.942z"/>
		<path d="M169.348,150.942h-5.78l-43.71-95.584v89.082c0,1.397,0.493,2.59,1.481,3.576c0.986,0.987,2.179,1.479,3.576,1.479
			c0.434,0,0.674,0.242,0.723,0.724c0,0.434-0.242,0.676-0.723,0.723h-12.933c-0.434,0-0.675-0.239-0.723-0.723
			c0-0.435,0.24-0.675,0.723-0.724c1.396,0,2.589-0.492,3.576-1.479c0.986-0.986,1.481-2.179,1.481-3.576V53.913
			c0-1.396-0.495-2.589-1.481-3.577c-0.987-0.986-2.18-1.481-3.576-1.481c-0.434,0-0.675-0.24-0.723-0.722
			c0-0.192,0.072-0.361,0.217-0.506s0.313-0.217,0.506-0.217h12.21l42.266,92.479V53.913c0-1.396-0.495-2.589-1.481-3.577
			c-0.988-0.986-2.18-1.481-3.576-1.481c-0.193,0-0.361-0.072-0.506-0.217s-0.217-0.313-0.217-0.505
			c0-0.192,0.072-0.361,0.217-0.506s0.313-0.217,0.506-0.217h12.933c0.24,0,0.421,0.072,0.541,0.217s0.181,0.314,0.181,0.506
			c0,0.433-0.241,0.675-0.722,0.722c-1.35,0-2.518,0.495-3.505,1.481c-0.987,0.988-1.48,2.18-1.48,3.577L169.348,150.942
			L169.348,150.942z"/>
		<path d="M231.987,150.942h-51.513c-0.434,0-0.65-0.239-0.65-0.724c0-0.479,0.217-0.723,0.65-0.723
			c1.396,0,2.589-0.492,3.576-1.479c0.986-0.986,1.481-2.179,1.481-3.576V53.913c0-1.396-0.495-2.589-1.481-3.577
			c-0.987-0.986-2.18-1.481-3.576-1.481c-0.434,0-0.65-0.24-0.65-0.722c0-0.192,0.06-0.361,0.181-0.506
			c0.12-0.145,0.276-0.217,0.47-0.217h48.623l3.901,14.522c0,0.289-0.061,0.47-0.181,0.542c-0.121,0.072-0.302,0.133-0.542,0.18
			c-0.289,0-0.506-0.168-0.65-0.505c-0.481-1.83-1.457-3.649-2.926-5.455c-1.47-1.806-3.323-3.323-5.563-4.551
			c-2.239-1.229-4.78-1.843-7.622-1.843h-22.83v44.578h26.587c1.396,0,2.589-0.494,3.576-1.481c0.987-0.986,1.481-2.179,1.481-3.576
			c0-0.192,0.072-0.361,0.217-0.506s0.313-0.217,0.506-0.217c0.24,0,0.421,0.072,0.542,0.217c0.119,0.145,0.181,0.314,0.181,0.506
			v12.933c0,0.434-0.242,0.676-0.723,0.723c-0.193,0-0.361-0.072-0.506-0.217s-0.217-0.313-0.217-0.506
			c0-1.396-0.494-2.575-1.481-3.541c-0.987-0.963-2.18-1.445-3.576-1.445h-26.587v50.286h25.648c2.841,0,5.394-0.615,7.658-1.844
			c2.263-1.229,4.129-2.744,5.599-4.551c1.469-1.808,2.444-3.623,2.927-5.455c0.096-0.336,0.289-0.506,0.577-0.506
			c0.241,0.049,0.422,0.108,0.542,0.182c0.12,0.072,0.181,0.301,0.181,0.686l-1.733,6.213L231.987,150.942z"/>
		<path d="M267.245,152.387c-3.95,0-7.479-0.556-10.585-1.662s-5.815-2.517-8.128-4.228c-2.313-1.709-4.263-3.504-5.852-5.383
			c-0.387,0-0.578,0.795-0.578,2.385c0,0.435-0.242,0.676-0.723,0.724c-0.434,0-0.675-0.24-0.723-0.724v-16.472
			c0-0.435,0.24-0.674,0.723-0.723c0.434,0,0.674,0.241,0.723,0.723c0,3.854,0.891,7.501,2.673,10.945
			c1.781,3.444,4.539,6.228,8.272,8.346c3.732,2.119,8.536,3.179,14.413,3.179c5.01,0,9.235-1.215,12.68-3.648
			c3.443-2.432,6.044-5.479,7.803-9.139c1.758-3.66,2.639-7.297,2.639-10.91c0-3.854-0.904-7.225-2.711-10.114
			c-1.806-2.892-4.094-5.491-6.863-7.804c-2.771-2.312-5.696-4.502-8.778-6.574l-2.239-1.59c-1.445-1.01-2.938-2.022-4.479-3.033
			c-3.421-2.264-6.672-4.635-9.754-7.117c-3.083-2.48-5.611-5.285-7.586-8.417c-1.976-3.13-2.962-6.838-2.962-11.126
			c0-4.527,1.156-8.598,3.468-12.21c2.313-3.612,5.406-6.478,9.284-8.598c3.876-2.119,8.128-3.179,12.752-3.179
			c3.226,0,6.128,0.422,8.706,1.264c2.575,0.843,4.923,1.951,7.044,3.323c2.119,1.373,4.045,2.854,5.779,4.443
			c0.24,0,0.444-0.276,0.613-0.831c0.168-0.553,0.253-1.216,0.253-1.987c0-0.241,0.072-0.434,0.218-0.578
			c0.145-0.144,0.313-0.217,0.506-0.217c0.191,0,0.36,0.072,0.506,0.217c0.145,0.145,0.217,0.337,0.217,0.578v16.472
			c0,0.193-0.072,0.361-0.217,0.506c-0.146,0.145-0.313,0.217-0.506,0.217c-0.435,0-0.676-0.24-0.724-0.723
			c0-3.323-0.866-6.502-2.601-9.537c-1.734-3.034-4.217-5.515-7.441-7.441c-3.228-1.926-7.057-2.89-11.488-2.89
			c-3.709,0-7.044,0.82-10.006,2.457c-2.962,1.638-5.299,3.793-7.008,6.466C252.854,60.451,252,63.33,252,66.412
			c0,3.276,0.759,6.141,2.276,8.597c1.517,2.457,3.685,4.805,6.502,7.044c2.817,2.239,6.178,4.685,10.079,7.333l4.263,3.035
			c5.298,3.709,9.717,7.188,13.256,10.44c3.541,3.251,6.188,6.623,7.947,10.114c1.758,3.493,2.637,7.55,2.637,12.174
			c0,4.913-1.457,9.429-4.369,13.546c-2.916,4.119-6.768,7.432-11.56,9.936C278.237,151.134,272.975,152.387,267.245,152.387z"/>
		<path d="M344.189,150.942h-17.195c-0.434,0-0.676-0.239-0.723-0.724c0-0.434,0.24-0.674,0.723-0.723
			c1.396,0,2.576-0.492,3.539-1.479c0.963-0.986,1.445-2.179,1.445-3.576V50.3h-10.764c-2.795,0-5.324,0.614-7.588,1.843
			c-2.265,1.228-4.129,2.745-5.599,4.551c-1.471,1.806-2.444,3.625-2.928,5.455c-0.144,0.337-0.358,0.505-0.647,0.505
			c-0.482-0.047-0.724-0.24-0.724-0.578l3.899-14.667h55.92l3.902,14.522c0,0.434-0.242,0.675-0.723,0.722
			c-0.338,0-0.555-0.168-0.65-0.505c-0.482-1.83-1.457-3.649-2.926-5.455c-1.471-1.806-3.324-3.323-5.563-4.551
			c-2.24-1.229-4.781-1.843-7.623-1.843h-10.766v94.14c0,1.398,0.493,2.59,1.481,3.576c0.985,0.988,2.153,1.48,3.504,1.48
			c0.435,0,0.674,0.241,0.724,0.723C344.912,150.653,344.669,150.895,344.189,150.942z"/>
		<path d="M430.164,152.387c-4.768,0-9.031-0.759-12.787-2.275c-3.758-1.519-6.973-3.37-9.646-5.563
			c-2.672-2.19-4.756-4.371-6.248-6.539c-0.241-0.385-0.36-0.745-0.36-1.084c0-0.434,0.168-0.782,0.506-1.047
			c0.336-0.266,0.697-0.397,1.082-0.397c0.387,0,0.748,0.192,1.084,0.578c1.59,2.313,3.674,4.504,6.25,6.573
			c2.576,2.072,5.563,3.759,8.959,5.06c3.396,1.3,7.117,1.949,11.162,1.949c4.336-0.047,8.236-1.181,11.705-3.396
			c3.467-2.215,6.225-5.371,8.27-9.465c2.049-4.093,3.07-8.957,3.07-14.594c0-5.538-1.021-10.367-3.07-14.486
			c-2.047-4.117-4.793-7.32-8.234-9.609c-3.443-2.287-7.311-3.456-11.598-3.504c-4.863,0-9.092,0.518-12.68,1.553
			c-3.588,1.036-7.235,2.301-10.944,3.793l-0.938,0.36l3.396-52.813h47.757l-0.508,7.152h-44.866l-2.601,41.182
			c7.369-2.552,14.496-3.829,21.385-3.829c6.117,0,11.549,1.253,16.295,3.757c4.74,2.505,8.477,6.009,11.195,10.511
			c2.723,4.504,4.082,9.814,4.082,15.932s-1.373,11.439-4.117,15.967c-2.746,4.527-6.504,8.031-11.27,10.512
			C441.726,151.147,436.281,152.387,430.164,152.387z"/>
		<path d="M504.001,152.387c-5.443,0-10.379-1.386-14.811-4.154c-4.434-2.769-8.215-6.573-11.346-11.416
			c-3.131-4.839-5.539-10.476-7.225-16.905c-1.686-6.431-2.527-13.33-2.527-20.7c0-7.369,0.844-14.269,2.527-20.699
			c1.686-6.43,4.094-12.065,7.225-16.906c3.133-4.841,6.912-8.645,11.346-11.415c4.432-2.77,9.365-4.154,14.811-4.154
			c5.492,0,10.439,1.385,14.848,4.154c4.406,2.77,8.188,6.574,11.344,11.415c3.152,4.841,5.574,10.476,7.26,16.906
			c1.686,6.43,2.529,13.33,2.529,20.699c0,7.37-0.844,14.269-2.529,20.7c-1.686,6.43-4.107,12.066-7.26,16.905
			c-3.156,4.843-6.938,8.646-11.344,11.416C514.441,151.001,509.494,152.387,504.001,152.387z M504.001,149.498
			c5.732,0,10.705-2.263,14.92-6.791c4.215-4.525,7.477-10.596,9.789-18.207c2.313-7.609,3.469-16.039,3.469-25.288
			c0-9.295-1.156-17.748-3.469-25.359c-2.313-7.61-5.574-13.679-9.789-18.207c-4.215-4.527-9.188-6.792-14.92-6.792
			c-5.684,0-10.645,2.265-14.883,6.792c-4.238,4.528-7.514,10.597-9.826,18.207c-2.311,7.611-3.467,16.064-3.467,25.359
			c0,9.249,1.156,17.677,3.467,25.288c2.313,7.611,5.588,13.681,9.826,18.207C493.357,147.235,498.318,149.498,504.001,149.498z"/>
	</g>
	<rect x="114.027" y="179.777" width="338.875" height="3.012"/>
	<rect x="114.027" y="15.636" width="338.875" height="3.012"/>
</g>
</svg>
