<?xml version="1.0" encoding="utf-8"?>
<!-- Generator: Adobe Illustrator 16.0.0, SVG Export Plug-In . SVG Version: 6.00 Build 0)  -->
<!DOCTYPE svg PUBLIC "-//W3C//DTD SVG 1.1//EN" "http://www.w3.org/Graphics/SVG/1.1/DTD/svg11.dtd">
<svg version="1.1" xmlns="http://www.w3.org/2000/svg" xmlns:xlink="http://www.w3.org/1999/xlink" x="0px" y="0px" width="500px"
	 height="390px" viewBox="0 0 500 390" enable-background="new 0 0 500 390" xml:space="preserve">
<g id="BACKGROUND">
	<circle fill="#C8EEFB" cx="244.959" cy="193.932" r="193.59"/>
</g>
<g id="OBJECTS">
	<g>
		<g>
			<rect x="216.274" y="289.055" fill="#0056EC" width="57.148" height="39.303"/>
			<rect x="216.274" y="289.055" opacity="0.5" fill="#605ACA" width="57.148" height="14.244"/>
			<path fill="#0056EC" d="M302.848,327.738H186.85c-3.664,0-6.633,2.97-6.633,6.634c0,3.663,2.97,6.633,6.633,6.633h115.998
				c3.664,0,6.634-2.97,6.634-6.633l0,0C309.481,330.708,306.512,327.738,302.848,327.738z"/>
			<path opacity="0.5" fill="#605ACA" d="M309.483,334.377c0,3.655-2.971,6.627-6.637,6.627H186.851
				c-3.666,0-6.636-2.972-6.636-6.627c0-0.558,0.064-1.099,0.21-1.61c0.704,2.89,3.319,5.027,6.426,5.027h115.996
				c3.108,0,5.722-2.138,6.427-5.027C309.419,333.278,309.483,333.819,309.483,334.377z"/>
			<g>
				<g>
					<g>
						<path fill="#FFFFFF" d="M66.038,294.536c-2.242,0-4.067-1.825-4.067-4.068V54.301c0-2.242,1.825-4.067,4.067-4.067H423.66
							c2.242,0,4.066,1.825,4.066,4.067v236.167c0,2.243-1.824,4.068-4.066,4.068H66.038z"/>
						<path fill="#0056EC" d="M423.66,53.139c0.64,0,1.162,0.521,1.162,1.162v236.167c0,0.642-0.522,1.162-1.162,1.162H66.038
							c-0.64,0-1.162-0.521-1.162-1.162V54.301c0-0.641,0.521-1.162,1.162-1.162H423.66 M423.66,47.329H66.038
							c-3.85,0-6.972,3.122-6.972,6.972v236.167c0,3.851,3.122,6.973,6.972,6.973H423.66c3.85,0,6.972-3.122,6.972-6.973V54.301
							C430.632,50.451,427.51,47.329,423.66,47.329L423.66,47.329z"/>
					</g>
				</g>
				<g>
					<path fill="#0056EC" d="M430.631,289.988v-23.09H59.066v23.09c0,4.352,3.527,7.865,7.867,7.865h355.831
						C427.104,297.854,430.631,294.34,430.631,289.988z"/>
				</g>
			</g>
			<g>
				<circle fill="#C8EEFB" cx="244.849" cy="100.638" r="28.64"/>
				<g>
					<defs>
						<circle id="SVGID_1_" cx="244.849" cy="100.638" r="28.64"/>
					</defs>
					<clipPath id="SVGID_2_">
						<use xlink:href="#SVGID_1_"  overflow="visible"/>
					</clipPath>
					<path clip-path="url(#SVGID_2_)" fill="#5084DA" d="M255.917,94.101c0,6.113-4.956,11.068-11.068,11.068
						s-11.067-4.955-11.067-11.068c0-6.112,4.955-11.067,11.067-11.067S255.917,87.989,255.917,94.101z M261.551,140.446v-19.339
						c0-7.35-5.958-13.309-13.309-13.309h-6.788c-7.35,0-13.308,5.959-13.308,13.309v19.339c0,2.037,1.651,3.688,3.688,3.688h26.028
						C259.9,144.134,261.551,142.483,261.551,140.446z"/>
				</g>
			</g>
			<path fill="#C8EEFB" d="M313.375,161.858H176.323c-6.259,0-11.333-5.074-11.333-11.332l0,0c0-6.26,5.074-11.333,11.333-11.333
				h137.052c6.259,0,11.332,5.073,11.332,11.333l0,0C324.707,156.785,319.634,161.858,313.375,161.858z"/>
			<path fill="#5084DA" d="M308.617,153.486H181.08c-1.634,0-2.959-1.326-2.959-2.959l0,0c0-1.635,1.325-2.96,2.959-2.96h127.538
				c1.635,0,2.961,1.326,2.961,2.96l0,0C311.578,152.16,310.252,153.486,308.617,153.486z"/>
			<path fill="#C8EEFB" d="M313.484,202.621H176.433c-6.258,0-11.333-5.072-11.333-11.333l0,0c0-6.258,5.074-11.332,11.333-11.332
				h137.052c6.259,0,11.333,5.074,11.333,11.332l0,0C324.817,197.549,319.743,202.621,313.484,202.621z"/>
			<path fill="#5084DA" d="M179.94,194.448L179.94,194.448c-1.635,0-2.959-1.326-2.959-2.959l0,0c0-1.634,1.325-2.96,2.959-2.96l0,0
				c1.634,0,2.959,1.326,2.959,2.96l0,0C182.899,193.123,181.574,194.448,179.94,194.448z M191.699,191.489L191.699,191.489
				c0-1.634-1.325-2.96-2.959-2.96l0,0c-1.635,0-2.959,1.326-2.959,2.96l0,0c0,1.634,1.325,2.959,2.959,2.959l0,0
				C190.375,194.448,191.699,193.123,191.699,191.489z M200.5,191.489L200.5,191.489c0-1.634-1.325-2.96-2.959-2.96l0,0
				c-1.635,0-2.959,1.326-2.959,2.96l0,0c0,1.634,1.325,2.959,2.959,2.959l0,0C199.174,194.448,200.5,193.123,200.5,191.489z
				 M209.299,191.489L209.299,191.489c0-1.634-1.325-2.96-2.959-2.96l0,0c-1.634,0-2.959,1.326-2.959,2.96l0,0
				c0,1.634,1.325,2.959,2.959,2.959l0,0C207.974,194.448,209.299,193.123,209.299,191.489z M218.1,191.489L218.1,191.489
				c0-1.634-1.325-2.96-2.959-2.96l0,0c-1.634,0-2.959,1.326-2.959,2.96l0,0c0,1.634,1.325,2.959,2.959,2.959l0,0
				C216.774,194.448,218.1,193.123,218.1,191.489z M226.9,191.489L226.9,191.489c0-1.634-1.326-2.96-2.96-2.96l0,0
				c-1.634,0-2.959,1.326-2.959,2.96l0,0c0,1.634,1.325,2.959,2.959,2.959l0,0C225.574,194.448,226.9,193.123,226.9,191.489z
				 M235.7,191.489L235.7,191.489c0-1.634-1.325-2.96-2.96-2.96l0,0c-1.634,0-2.959,1.326-2.959,2.96l0,0
				c0,1.634,1.325,2.959,2.959,2.959l0,0C234.375,194.448,235.7,193.123,235.7,191.489z"/>
			<path fill="#5084DA" d="M264.313,245.324h-38.928c-6.258,0-11.332-5.073-11.332-11.332l0,0c0-6.261,5.074-11.333,11.332-11.333
				h38.928c6.258,0,11.332,5.072,11.332,11.333l0,0C275.645,240.251,270.57,245.324,264.313,245.324z"/>
		</g>
		<path opacity="0.09" d="M388.535,297.227v-12.953c0-4.262-3.456-7.716-7.717-7.716h-0.674v-12.006
			c0-17.648-14.355-32.006-32.004-32.006c-17.647,0-32.006,14.357-32.006,32.006v12.006h-0.671c-4.263,0-7.718,3.454-7.718,7.716
			v12.953H388.535z M326.712,264.552c0-11.815,9.613-21.429,21.429-21.429c11.816,0,21.43,9.613,21.43,21.429v12.006h-42.858
			V264.552z"/>
		<path opacity="0.09" d="M403.659,175.826c-3.114-2.605-6.983-4.183-11.587-4.589c-0.013-0.426-0.012-0.845,0.007-1.39
			c2.368-0.38,4.395-2.451,5.572-5.245c3.194-3.078,5.365-6.887,4.317-11.689c-0.062-0.277-0.002-0.513,0.115-0.706
			c-1.374-2.458-3.908-3.64-6.72-6.187c-9.447-8.561-20.677,3.334-16.424,8.232c0.333,0.384,0.797,1.398,1.19,2.698
			c-0.008,0.03-0.02,0.051-0.026,0.082c-0.201,0.92-0.027,2.467,0.695,3.232c0.05,0.481,0.083,0.966,0.083,1.447
			c0.016,0.048,0.045,0.082,0.056,0.137c0.139,0.754,0.424,1.415,0.794,2.014c0.57,2.286,1.937,4.688,4.815,5.653
			c0.224,0.075,0.453,0.148,0.695,0.205c0.16,0.644,0.183,1.013,0.102,1.543c-2.787,0.311-5.311,1.182-7.56,2.531
			c-18.063,8.73-35.916,36.862-33.949,43.063c1.968,6.203,6.963,13.464,10.315,18.314l0.527-0.093
			c0.271,0.936,0.541,1.87,0.812,2.806c0.135,0.466,0.286,0.959,0.653,1.278c0.488,0.427,1.209,0.42,1.856,0.391
			c0.8-0.038,1.67-0.104,2.26-0.645c0.342-0.313,0.545-0.753,0.659-1.202c0.309-1.216-0.002-2.513-0.601-3.621l0.394-0.068
			c0,0-7.785-11.651-7.502-18.756c0.104-2.595,6.182-8.71,11.124-13.268c-0.113,1.583-0.175,3.192-0.175,4.827l-2.369,56.62
			c0,0,2.045,0.404,5.321,0.929l3.18,33.813h12.799l0.305-31.852c0.166,0.013,0.334,0.023,0.501,0.037
			c0.147,0.01,0.296,0.02,0.445,0.03c0.629,0.045,1.261,0.086,1.896,0.123c0.215,0.013,0.43,0.024,0.644,0.037
			c0.23,0.012,0.46,0.027,0.689,0.038l1.257,31.586h12.618l2.586-32.17c0.015-0.002,0.03-0.005,0.048-0.008
			c0.521-0.085,1.032-0.174,1.531-0.276c0.222-0.045,0.437-0.095,0.653-0.142c0.418-0.094,0.827-0.191,1.229-0.299
			c0.217-0.059,0.433-0.117,0.644-0.178c0.401-0.117,0.788-0.244,1.169-0.376c0.176-0.062,0.356-0.119,0.527-0.185
			c0.536-0.201,1.054-0.414,1.536-0.65l-0.259-61.244c0-1.322-0.042-2.605-0.115-3.857c-0.005-0.094-0.014-0.186-0.02-0.28
			c-0.075-1.168-0.183-2.304-0.321-3.408c-0.014-0.11-0.028-0.219-0.042-0.329c-0.015-0.099-0.025-0.2-0.039-0.299
			c2.497,0.494,5.744,1.091,9.993,1.809c2.761,0.466,5.448,0.231,8.017-0.496v-12.394
			C420.013,184.607,408.177,178.554,403.659,175.826z"/>
		<g>
			<circle opacity="0.3" fill="#94EBFF" cx="231.272" cy="190.348" r="19.684"/>
			<circle opacity="0.5" fill="#94EBFF" cx="231.271" cy="190.348" r="10.683"/>
		</g>
		<g>
			<path fill="#F9714E" d="M340.158,232.546c-17.649,0-32.006,14.357-32.006,32.006v30.777h64.011v-30.777
				C372.163,246.903,357.805,232.546,340.158,232.546z M318.728,284.752v-20.2c0-11.815,9.613-21.429,21.431-21.429
				c11.814,0,21.428,9.613,21.428,21.429v20.2H318.728z"/>
			<path opacity="0.4" fill="#F9714E" d="M340.158,238.871c-14.093,0-25.557,11.465-25.557,25.558v24.574h51.112v-24.574
				C365.714,250.336,354.249,238.871,340.158,238.871z M361.586,284.752h-42.858v-20.2c0-11.815,9.613-21.429,21.431-21.429
				c11.814,0,21.428,9.613,21.428,21.429V284.752z"/>
			<path fill="#FFB255" d="M372.688,341.005h-65.063c-4.342,0-7.862-3.521-7.862-7.863V284.42c0-4.343,3.521-7.862,7.862-7.862
				h65.063c4.344,0,7.864,3.52,7.864,7.862v48.722C380.552,337.484,377.031,341.005,372.688,341.005z"/>
			<path fill="#F9714E" d="M351.903,304.316c0-6.486-5.26-11.745-11.746-11.745s-11.744,5.259-11.744,11.745
				c0,4.535,2.573,8.463,6.338,10.421v12.697h10.813v-12.697C349.327,312.779,351.903,308.852,351.903,304.316z"/>
			<path opacity="0.4" fill="#FFB255" d="M372.835,276.558h-19.408c-4.235,13.167-10.829,25.626-19.227,36.537
				c-7.806,10.142-20.096,23.014-33.998,22.743c1.056,3.007,3.91,5.167,7.277,5.167h65.355c4.263,0,7.717-3.455,7.717-7.718v-49.014
				C380.552,280.012,377.098,276.558,372.835,276.558z"/>
		</g>
		<g>
			<path fill="#FFC2D3" d="M347.966,232.561c0.514,1.775,1.027,3.549,1.541,5.324c0.135,0.466,0.286,0.959,0.652,1.278
				c0.489,0.427,1.209,0.42,1.857,0.391c0.8-0.038,1.67-0.104,2.261-0.645c0.342-0.313,0.545-0.753,0.658-1.202
				c0.33-1.306-0.049-2.712-0.737-3.871s-1.665-2.114-2.63-3.057"/>
			<path fill="#FFC2D3" d="M443.627,171.287c0.623-2.476,1.471-4.896,2.529-7.22c0.55,0.699,0.487,1.684,0.398,2.569
				c0.536-1.297,1.564-2.384,2.83-2.991c0.152-0.072,0.328-0.138,0.482-0.074c0.175,0.072,0.245,0.275,0.292,0.458
				c0.481,1.9,0.25,3.971-0.639,5.717c-0.889,1.747-2.427,3.155-4.244,3.885"/>
			<path fill="#5084DA" d="M391.362,336.71c4.521,1.103,8.306,2.434,10.381,4.295h-17.427l0.333-4.045L391.362,336.71z"/>
			<path fill="#5084DA" d="M370.049,336.71c-4.521,1.103-8.306,2.434-10.382,4.295h17.429l-0.335-4.045L370.049,336.71z"/>
			<g>
				<g>
					<path fill="#2E2C84" d="M400.525,235.158l-8.217,102.264c0,0-2.87,0.703-3.863,0.703c-0.489,0-1.415-0.165-2.258-0.314
						c-0.952-0.194-1.783-0.389-1.783-0.389l-3.075-77.302h-3.859l-0.738,77.302c0,0-2.054,0.613-4.189,0.613
						c-2.081,0-4.544-0.613-4.544-0.613l-9.862-104.876L400.525,235.158z"/>
				</g>
			</g>
			<g opacity="0.3">
				<path opacity="0.5" fill="#2E2C84" d="M384.773,234.188l-14.474-0.892c-0.177,18.835,2.656,86.142,2.945,104.715
					c1.861-0.107,3.486-0.589,3.486-0.589l0.738-77.302h3.859l3.075,77.302c0,0,0.831,0.194,1.783,0.389
					c0.281,0.05,0.567,0.1,0.848,0.146C387.035,316.903,385.135,242.845,384.773,234.188z"/>
			</g>
			<g>
				<path fill="#001F64" d="M372.899,161.711c0.018,0.048,0.046,0.082,0.056,0.137c0.622,3.381,3.831,5.115,7.397,6.099
					c2.9,0.801,3.572,1.151,5.9-0.53c4.829-3.486,9.126-8.118,7.731-14.503c-0.06-0.277-0.001-0.513,0.116-0.706
					c-1.375-2.458-3.907-3.64-6.719-6.187c-9.448-8.561-20.678,3.334-16.426,8.232C371.646,155.046,372.903,158.506,372.899,161.711
					z"/>
			</g>
			<path fill="#8FC2FF" d="M405.124,202.654c0-19.44-8.046-31.528-23.454-31.528c-15.411,0-23.495,16.256-23.495,35.694
				l-2.369,56.62c0,0,35.923,7.125,49.577,0.458L405.124,202.654z"/>
			<path opacity="0.3" fill="#8FC2FF" d="M405.124,202.654c0-5.438-0.631-10.3-1.874-14.483
				c-1.367,21.155-3.222,77.478-34.709,77.252c11.703,1.463,28.462,2.565,36.842-1.525L405.124,202.654z"/>
			<path fill="#FFC2D3" d="M389.582,159.429c-0.576-3.825-3.985-7.662-8.147-5.673c-2.672,1.276-5.435,1.422-7.615,0.256
				c-0.063,0.737-0.153,1.811-0.235,2.938c-0.462-0.845-1.231-0.975-1.464,0.082c-0.247,1.132,0.061,3.235,1.276,3.63
				c-0.002,0.197-0.005,0.395-0.001,0.562c0.058,2.86,1.226,7.41,5.866,8.496c0.249,1.009,0.162,1.34-0.126,2.684
				c0.257,0.899,3.863,1.476,5.055,0.418c-0.101-1.24-0.135-1.836-0.095-2.975c2.744-0.44,5.035-3.146,6.072-6.623
				C394.308,160.903,391.345,156.67,389.582,159.429z"/>
			<path opacity="0.3" fill="#FFC2D3" d="M389.582,159.429c-0.227-1.509-0.9-3.014-1.882-4.169
				c0.114,6.648-2.716,12.827-9.136,14.255c0.225,0.075,0.453,0.148,0.697,0.205c0.249,1.009,0.162,1.34-0.126,2.684
				c0.257,0.898,3.863,1.476,5.055,0.418c-0.101-1.24-0.135-1.836-0.095-2.975c2.744-0.44,5.035-3.146,6.072-6.622
				C394.308,160.903,391.345,156.67,389.582,159.429z"/>
			<path fill="#8FC2FF" d="M371.803,173.794c-18.062,8.73-35.916,36.862-33.949,43.063c1.966,6.203,6.963,13.464,10.313,18.314
				l6.561-1.154c0,0-7.784-11.651-7.5-18.756c0.174-4.383,17.395-18.81,17.395-18.81L371.803,173.794z"/>
			<path fill="#8FC2FF" d="M394.056,174.784c2.827,2.033,26.425,16.172,39.401,3.686c9.373-9.019,10.316-10.761,10.316-10.761
				l3.215,5.693c0,0-14.666,25.881-32.407,22.887c-17.74-2.994-18.19-3.914-18.19-3.914L394.056,174.784z"/>
		</g>
		<g>
			<path opacity="0.09" d="M102.352,285.537c-6.756,1.952-12.47,6.364-16.129,12.192h47.939c-3.659-5.828-9.374-10.24-16.129-12.192
				V168.091h-15.68v1.916H85.607v14.138h16.744v3.366H85.607v14.137h16.744V285.537z"/>
			<g>
				<rect x="95.872" y="170.006" fill="#FFB255" width="20.084" height="14.138"/>
				<rect x="95.872" y="187.51" fill="#FFB255" width="20.084" height="14.137"/>
				<rect x="110.836" y="170.006" opacity="0.5" fill="#FFC87C" width="5.12" height="14.138"/>
				<rect x="110.836" y="187.51" opacity="0.5" fill="#FFC87C" width="5.12" height="14.137"/>
				<rect x="112.615" y="168.091" fill="#FFB255" width="15.681" height="122.876"/>
				<path opacity="0.5" fill="#FFC87C" d="M120.212,295.198h0.487c0.527,0,0.956-0.428,0.956-0.955V173.277
					c0-0.527-0.428-0.955-0.956-0.955h-0.487c-0.528,0-0.956,0.428-0.956,0.955v120.966
					C119.256,294.771,119.684,295.198,120.212,295.198z"/>
				<g>
					<path fill="#FFB255" d="M92.165,312.715c0-15.6,12.691-28.292,28.291-28.292s28.292,12.692,28.292,28.292
						c0,15.599-12.692,28.29-28.292,28.29S92.165,328.313,92.165,312.715z M106.753,312.715c0,7.555,6.146,13.701,13.702,13.701
						c7.557,0,13.703-6.146,13.703-13.701c0-7.556-6.146-13.704-13.703-13.704C112.899,299.011,106.753,305.159,106.753,312.715z"/>
				</g>
				<path opacity="0.5" fill="#FFC87C" d="M105.42,312.715c0,8.29,6.745,15.035,15.035,15.035c8.29,0,15.035-6.745,15.035-15.035
					s-6.745-15.036-15.035-15.036C112.165,297.679,105.42,304.425,105.42,312.715z M106.753,312.715
					c0-7.556,6.146-13.704,13.702-13.704c7.557,0,13.703,6.148,13.703,13.704c0,7.555-6.146,13.701-13.703,13.701
					C112.899,326.416,106.753,320.27,106.753,312.715z"/>
			</g>
			<g>
				<path opacity="0.09" d="M223.339,194.448c-4.963,4.397-22.85,23.13-26.129,12.935c-2.596-8.071-8.04-19.176-11.229-22.902
					c-2.098-2.405-4.789-3.982-7.74-4.746v-1.291c3.104-0.015,7.954-0.621,7.954-11.799c0-3.379-0.322-5.605-0.902-7.064
					c0.927-0.933,0.865-2.768,0.21-3.847c-0.867-1.43-3.148-2.672-4.664-3.344c-3.588-1.589-8.273-2.33-11.715-0.101
					c-1.206-1.653-3.146-3.134-4.327-3.782c-1.465-0.803-3.054-1.49-4.725-1.522c-3.306-0.065-6.18,2.471-7.708,5.405
					c-1.239,2.377-1.822,5.15-1.311,7.783c0.511,2.632,2.197,5.081,4.625,6.217c0.713,0.335,1.506,0.558,2.288,0.45
					c1.036-0.142,1.908-0.838,2.633-1.592c1.766-1.836,2.067-4.028,3.364-6.016c0.197-0.302,0.448-0.506,0.721-0.675
					c-0.386,1.292-0.598,2.642-0.608,3.981c-0.03,3.856,1.325,7.604,3.108,11.024c0.473,0.907,1.006,1.829,1.847,2.412
					c0.809,0.561,2.897,1.108,3.749,0.561l-0.358,2.739c-2.44,0.213-4.914,0.921-7.271,2.124c0-0.002-0.002-0.008-0.002-0.008
					c-13.444,3.091-23.586,36.102-41.569,33.914v0.044c-2.187-0.609-4.586-0.783-4.713,1.358c-0.247,4.192,2.359,4.728,4.713,4.383
					v0.087c7.527,0,17.509-2.172,26.275-11.861c-4.836,27.267-2.904,62.971-2.904,62.971c1.296,0.188,2.587,0.355,3.875,0.515
					l2.203,24.981h11.451l0.027-23.835c2.312,0.095,4.607,0.142,6.883,0.126l0.268,23.709h13.28l2.566-24.863
					c2.353-0.331,4.684-0.728,6.986-1.211c-0.473-14.996-0.534-34.597-1.531-51.576c0.704,0.661,1.504,1.175,2.46,1.412
					c1.561,0.386,8.283,8.139,13.12,2.244c4.905-5.979,15.155-18.318,18.911-24.678C226.635,197.012,224.47,196.39,223.339,194.448z
					"/>
				<polygon fill="#F9ACC8" points="179.754,175.526 178.999,181.313 185.083,181.98 185.083,175.876 				"/>
				<path opacity="0.1" d="M132.857,217.847c0,0-8.055-3.97-8.289,0c-0.444,7.517,8.289,3.28,8.289,3.28V217.847z"/>
				<path fill="#FFC2D3" d="M133.998,216.706c0,0-8.055-3.97-8.289,0c-0.444,7.517,8.289,3.28,8.289,3.28V216.706z"/>
				<g>
					<path fill="#FFC2D3" d="M174.259,166.646c0,5.26,5.431,11.801,10.69,11.801c3.095,0,8.089-0.463,8.089-11.801
						c0-11.918-3.996-9.523-9.255-9.523C178.522,157.123,174.259,161.387,174.259,166.646z"/>
				</g>
				<path opacity="0.3" fill="#FFC2D3" d="M182.264,171.067c0.016-4.424,0.583-9.677,2.216-13.959
					c-0.23,0.009-0.462,0.014-0.698,0.014c-5.26,0-9.523,4.264-9.523,9.523c0,5.16,5.226,11.537,10.39,11.779
					C182.966,176.49,182.252,174.068,182.264,171.067z"/>
				<path fill="#FFB255" d="M191.028,160.273c-0.842,0.126-1.743-0.277-2.533,0.042c-1.266,0.51-1.351,2.439-2.518,3.149
					c-1.457,0.885-3.651-0.647-4.925,0.49c-0.75,0.671-0.663,1.851-0.584,2.86c0.205,2.659-0.091,5.356-0.869,7.903
					c-0.182,0.593,0.601,1.654,0.135,2.058c-0.777,0.672-3.018,0.083-3.859-0.505c-0.841-0.589-1.374-1.521-1.847-2.437
					c-1.784-3.455-3.138-7.24-3.108-11.136c0.03-3.896,1.622-7.919,4.768-10.172c3.464-2.481,8.311-1.728,11.996-0.079
					c1.516,0.678,3.796,1.934,4.664,3.378C193.197,157.242,193.064,159.97,191.028,160.273z"/>
				<path opacity="0.5" fill="#FFC87C" d="M190.023,153.701c-1.241,1.11-2.492,3.113-3.427,3.767
					c-1.292,0.904-2.841,1.086-4.312,1.538c-6.773,2.08-7.241,12.466-4.284,18.012c0.701,0.104,1.374,0.068,1.733-0.242
					c0.466-0.404-0.316-1.464-0.135-2.058c0.778-2.548,1.074-5.245,0.869-7.903c-0.079-1.009-0.166-2.189,0.584-2.86
					c1.274-1.138,3.469,0.395,4.925-0.49c1.167-0.71,1.252-2.639,2.518-3.149c0.791-0.319,1.691,0.084,2.533-0.042
					c2.036-0.303,2.169-3.031,1.318-4.448C191.874,155.038,190.981,154.313,190.023,153.701z"/>
				<path fill="#FFB255" d="M171.64,148.523c-1.465-0.813-3.054-1.505-4.724-1.538c-3.307-0.065-6.181,2.497-7.708,5.46
					c-1.239,2.402-1.822,5.203-1.311,7.862c0.51,2.659,2.196,5.133,4.624,6.282c0.714,0.338,1.507,0.563,2.287,0.455
					c1.037-0.144,1.909-0.847,2.634-1.608c1.766-1.855,2.067-4.07,3.364-6.077c1.049-1.624,3.351-0.957,4.888-2.016
					C179.591,154.654,174.039,149.854,171.64,148.523z"/>
				<path opacity="0.5" fill="#FFC87C" d="M173.4,155.688c-0.708-0.365-1.263-1.028-1.965-1.38c-1.003-1.093-6.147-1.665-7.22,5.498
					c-0.321,2.14-1.97,4.356-3.656,5.413c0.583,0.552,1.234,1.026,1.961,1.37c0.714,0.338,1.507,0.563,2.287,0.455
					c1.037-0.144,1.909-0.847,2.634-1.608c1.766-1.855,2.067-4.07,3.364-6.077c1.049-1.624,3.351-0.957,4.888-2.016
					c0.553-0.381,0.898-0.808,1.107-1.258C175.788,156.432,174.701,156.36,173.4,155.688z"/>
				<path fill="#F9714E" d="M170.007,336.71c4.521,1.103,8.307,2.434,10.382,4.295h-17.428l0.333-4.045L170.007,336.71z"/>
				<path fill="#F9714E" d="M185.631,336.71c4.52,1.103,8.306,2.434,10.381,4.295h-17.428l0.333-4.045L185.631,336.71z"/>
				<path opacity="0.1" d="M230.816,190.55c-0.096-0.05-0.261-0.135-0.365-0.164c-0.648-0.174-1.26,0.276-1.799,0.677
					c-0.951,0.708-2.748,2.164-3.535,3.05c0.002,0,0.004,0,0.006,0c-0.257,0.228-0.489,0.479-0.676,0.751
					c-0.607,0.88-0.781,2.117-0.211,3.021c0.443,0.704,1.252,1.229,2.084,1.223c1.213-0.008,2.848-0.65,3.659-1.598
					c0.812-0.948,0.746-2.005,0.158-3.106c-0.396-0.74-0.967-1.153-1.604-1.32c0.737-0.448,1.443-0.951,2.082-1.531
					c0.149-0.136,0.301-0.282,0.366-0.473C231.047,190.89,230.996,190.643,230.816,190.55z"/>
				<g>
					<g>
						<path fill="#FFC2D3" d="M230.4,193.07c0.588,1.101,0.654,2.159-0.157,3.106c-0.812,0.947-2.447,1.59-3.66,1.599
							c-0.831,0.004-1.64-0.52-2.083-1.224c-0.57-0.905-0.397-2.142,0.21-3.021C225.978,191.692,229.114,190.664,230.4,193.07z"/>
					</g>
					<g>
						<path fill="#FFC2D3" d="M228.351,192.032c0.908-0.504,1.758-1.114,2.527-1.813c0.149-0.136,0.301-0.283,0.367-0.473
							c0.065-0.192,0.014-0.438-0.165-0.531c-0.096-0.051-0.261-0.135-0.365-0.164c-0.648-0.175-1.26,0.275-1.799,0.676
							c-0.951,0.708-2.747,2.164-3.535,3.051C226.01,192.966,227.776,192.351,228.351,192.032z"/>
					</g>
				</g>
				<g>
					<path fill="#F9714E" d="M206.157,208.038c6.465-4.3,11.583-8.91,17.437-14.107c0.371-0.329,0.943-0.292,1.262,0.087
						c1.075,1.277,2.827,3.178,2.642,3.979c-0.103,0.446-0.42,0.805-0.726,1.144c-5.465,6.056-10.93,12.113-16.395,18.168
						c-1.077,1.194-2.172,2.402-3.527,3.265c-1.356,0.864-3.029,1.354-4.59,0.969c-2.63-0.65-4.103-3.359-5.535-5.658
						c-7.062-11.342-5.899-15.441-5.036-18.934c0.601-2.431,1.358-4.828,1.797-7.296c0.14-0.781-1.727-5.12-0.663-5.174
						c3.189,3.726,7.97,15.076,11.229,22.902C204.397,208.209,205.411,208.533,206.157,208.038z"/>
				</g>
				<g>
					<g>
						<path fill="#4B48B5" d="M155.154,244.296l8.216,93.188c0,0,2.871,0.641,3.864,0.641c0.489,0,1.415-0.15,2.258-0.286
							c0.953-0.178,1.782-0.354,1.782-0.354l0.083-70.441h6.795l0.796,70.441c0,0,2.054,0.558,4.189,0.558
							c2.082,0,4.544-0.558,4.544-0.558l9.863-95.569L155.154,244.296z"/>
					</g>
					<g>
						<path fill="#568EDB" d="M176.291,251.28c0.048,3.156-0.17,6.005,0.93,8.871c0.858,2.24,2.813,3.701,5.604,3.645
							c4.068-0.083,6.891-2.302,6.907-6.409c0.002-0.529,0.262-6.099,0.529-6.11C190.258,251.276,176.291,251.28,176.291,251.28z"/>
					</g>
					<g>
						<path fill="#568EDB" d="M156.997,251.284c0.048,3.156-0.091,6.004,0.688,8.876c0.608,2.245,1.976,3.714,3.921,3.67
							c2.833-0.063,4.413-3.214,4.781-6.378c0.062-0.522,0.155-6.097,0.34-6.106C166.725,251.346,156.997,251.284,156.997,251.284z"
							/>
					</g>
					<g>
						<path fill="#5E9CE4" d="M171.352,267.032c0.01,0,0.019-0.001,0.029-0.002c0.091-0.017,0.155-0.104,0.139-0.196
							c-1.09-6.333-0.342-18.451-0.333-18.573c0.002-0.049-0.015-0.096-0.05-0.13c-0.034-0.033-0.078-0.052-0.128-0.052
							c-0.11,0.007-10.966,0.511-15.521-0.641c-0.086-0.029-0.182,0.033-0.206,0.123c-0.022,0.091,0.031,0.184,0.124,0.206
							c4.265,1.079,13.953,0.724,15.431,0.66c-0.091,1.573-0.673,12.528,0.35,18.464C171.2,266.975,171.271,267.032,171.352,267.032
							z"/>
					</g>
					<g>
						<path fill="#5E9CE4" d="M172.713,267.032c0.005,0,0.009,0,0.015,0c0.094-0.009,0.163-0.092,0.155-0.184
							c-0.646-7.404-0.723-13.243-0.239-18.359c6.482-0.062,14.347-0.911,23.381-2.528c0.091-0.017,0.152-0.104,0.137-0.197
							s-0.094-0.151-0.198-0.137c-9.086,1.626-16.984,2.474-23.476,2.523c-0.087,0-0.159,0.067-0.167,0.154
							c-0.502,5.173-0.432,11.076,0.222,18.572C172.551,266.967,172.625,267.032,172.713,267.032z"/>
					</g>
					<g opacity="0.16">
						<path fill="#4E84D9" d="M169.492,337.839c0.953-0.178,1.782-0.354,1.782-0.354l0.083-70.441h0.571
							c-0.136-0.219-0.326-0.286-0.571-0.178c-1.333,0.599-1.959,1.524-2.789,2.613c-0.652,0.883-1.034,1.958-1.062,3.061
							C166.962,294.251,168.228,310.779,169.492,337.839z"/>
					</g>
					<g>
						<path fill="#5E9CE4" d="M186.984,335.527c-0.093-0.009-0.162-0.093-0.152-0.186l0.142-1.396
							c0.01-0.094,0.097-0.172,0.187-0.152c0.093,0.009,0.161,0.094,0.151,0.187l-0.142,1.396c-0.008,0.089-0.083,0.152-0.169,0.152
							C186.996,335.528,186.989,335.528,186.984,335.527z M187.404,331.423c-0.093-0.009-0.162-0.092-0.151-0.184l0.276-2.708
							c0.008-0.093,0.093-0.178,0.186-0.15c0.094,0.009,0.162,0.093,0.151,0.186l-0.276,2.706c-0.008,0.087-0.083,0.152-0.169,0.152
							C187.416,331.425,187.409,331.425,187.404,331.423z M187.956,326.01c-0.093-0.009-0.162-0.092-0.151-0.186l0.276-2.705
							c0.009-0.094,0.103-0.175,0.187-0.153c0.092,0.01,0.162,0.094,0.151,0.187l-0.276,2.706c-0.008,0.089-0.083,0.153-0.169,0.153
							C187.969,326.012,187.961,326.012,187.956,326.01z M188.509,320.599c-0.093-0.011-0.162-0.094-0.152-0.187l0.276-2.708
							c0.009-0.093,0.099-0.179,0.186-0.15c0.092,0.009,0.162,0.093,0.151,0.185l-0.276,2.708c-0.008,0.088-0.083,0.153-0.168,0.153
							C188.521,320.6,188.514,320.6,188.509,320.599z M189.063,315.184c-0.093-0.009-0.162-0.093-0.152-0.187l0.277-2.707
							c0.007-0.093,0.096-0.173,0.186-0.151c0.093,0.01,0.162,0.094,0.151,0.187l-0.276,2.707c-0.008,0.088-0.083,0.152-0.168,0.152
							C189.075,315.185,189.068,315.185,189.063,315.184z M189.616,309.771c-0.093-0.01-0.162-0.093-0.152-0.186l0.277-2.708
							c0.007-0.092,0.093-0.18,0.186-0.15c0.093,0.009,0.162,0.093,0.151,0.187l-0.277,2.705c-0.007,0.089-0.082,0.154-0.168,0.154
							C189.627,309.772,189.621,309.772,189.616,309.771z M190.168,304.356c-0.093-0.009-0.162-0.093-0.151-0.187l0.278-2.705
							c0.01-0.093,0.101-0.176,0.186-0.152c0.093,0.01,0.162,0.093,0.151,0.186l-0.278,2.708c-0.007,0.087-0.082,0.151-0.168,0.151
							C190.18,304.357,190.173,304.357,190.168,304.356z M190.722,298.943c-0.092-0.01-0.161-0.094-0.151-0.187l0.277-2.706
							c0.009-0.094,0.099-0.182,0.186-0.151c0.093,0.009,0.162,0.093,0.151,0.187l-0.276,2.705
							c-0.008,0.087-0.083,0.153-0.168,0.153C190.734,298.944,190.728,298.944,190.722,298.943z M191.275,293.529
							c-0.092-0.009-0.162-0.092-0.152-0.186l0.277-2.707c0.007-0.093,0.095-0.176,0.185-0.151c0.093,0.009,0.163,0.093,0.152,0.186
							l-0.276,2.708c-0.008,0.088-0.083,0.151-0.168,0.151C191.287,293.53,191.28,293.53,191.275,293.529z M191.827,288.117
							c-0.093-0.009-0.162-0.094-0.151-0.187l0.278-2.707c0.008-0.089,0.082-0.154,0.168-0.154c0.005,0,0.012,0,0.017,0.003
							c0.094,0.009,0.163,0.093,0.152,0.186l-0.278,2.707c-0.007,0.088-0.082,0.153-0.168,0.153
							C191.839,288.118,191.833,288.118,191.827,288.117z M192.381,282.702c-0.092-0.009-0.162-0.093-0.151-0.185l0.277-2.707
							c0.009-0.093,0.099-0.179,0.186-0.151c0.093,0.01,0.162,0.093,0.151,0.187l-0.276,2.706c-0.008,0.087-0.083,0.152-0.169,0.152
							C192.394,282.704,192.387,282.704,192.381,282.702z M192.934,277.289c-0.093-0.009-0.162-0.094-0.151-0.186l0.277-2.707
							c0.007-0.094,0.097-0.174,0.186-0.151c0.093,0.01,0.162,0.094,0.151,0.187l-0.276,2.705c-0.008,0.09-0.083,0.153-0.169,0.153
							C192.946,277.29,192.939,277.29,192.934,277.289z M193.487,271.878c-0.093-0.011-0.162-0.094-0.151-0.187l0.278-2.708
							c0.008-0.093,0.093-0.179,0.186-0.152c0.093,0.009,0.163,0.093,0.152,0.187l-0.277,2.708
							c-0.009,0.087-0.083,0.153-0.169,0.153C193.499,271.879,193.492,271.879,193.487,271.878z M194.041,266.463
							c-0.093-0.009-0.162-0.093-0.151-0.187l0.277-2.707c0.009-0.093,0.102-0.175,0.186-0.151c0.093,0.01,0.163,0.094,0.152,0.186
							l-0.276,2.709c-0.008,0.087-0.083,0.151-0.168,0.151C194.053,266.464,194.046,266.464,194.041,266.463z M194.593,261.049
							c-0.093-0.01-0.162-0.093-0.151-0.185l0.276-2.707c0.01-0.094,0.1-0.182,0.186-0.151c0.093,0.009,0.162,0.093,0.151,0.186
							l-0.276,2.706c-0.008,0.087-0.083,0.153-0.169,0.153C194.605,261.051,194.599,261.051,194.593,261.049z M195.146,255.635
							c-0.093-0.009-0.162-0.092-0.151-0.186l0.277-2.707c0.009-0.092,0.096-0.175,0.186-0.151c0.093,0.01,0.163,0.094,0.151,0.187
							l-0.277,2.707c-0.008,0.088-0.083,0.152-0.169,0.152C195.158,255.637,195.151,255.637,195.146,255.635z M195.701,250.223
							c-0.094-0.011-0.163-0.094-0.152-0.187l0.277-2.706c0.008-0.094,0.093-0.182,0.186-0.152c0.093,0.01,0.163,0.092,0.151,0.186
							l-0.276,2.707c-0.008,0.087-0.083,0.153-0.169,0.153C195.712,250.224,195.706,250.224,195.701,250.223z"/>
					</g>
				</g>
				<path fill="#F9714E" d="M171.991,181.39c-13.445,3.091-23.586,36.102-41.569,33.914v5.872c8.417,0,19.91-2.687,29.333-15.602
					C173.382,186.9,171.991,181.39,171.991,181.39z"/>
				<path opacity="0.3" fill="#F9714E" d="M171.991,181.39c-13.445,3.091-23.586,36.102-41.569,33.914v5.872
					c8.417,0,19.91-2.687,29.333-15.602C173.382,186.9,171.991,181.39,171.991,181.39z"/>
				<path fill="#F9714E" d="M192.823,184.481c8.257,9.461,7.568,57.434,8.508,87.226c-14.88,3.123-30.833,2.991-47.538,0.578
					c0,0-2.599-48.003,5.769-75.193C165.244,178.633,184.111,174.497,192.823,184.481z"/>
				<path opacity="0.3" fill="#F9714E" d="M165.18,247.749c-3.088-10.159-4.479-20.58-4.449-31.188
					c0.024-8.908,0.245-18.582,2.583-27.375c-1.534,2.255-2.822,4.884-3.752,7.906c-8.368,27.19-5.769,75.193-5.769,75.193
					c8.446,1.221,16.698,1.854,24.719,1.782C172.449,266.385,168.1,257.354,165.18,247.749z"/>
			</g>
		</g>
	</g>
</g>
<g id="DESIGNED_BY_FREEPIK">
</g>
</svg>
