<?xml version="1.0" encoding="utf-8"?>
<!-- Generator: Adobe Illustrator 16.0.0, SVG Export Plug-In . SVG Version: 6.00 Build 0)  -->
<!DOCTYPE svg PUBLIC "-//W3C//DTD SVG 1.1//EN" "http://www.w3.org/Graphics/SVG/1.1/DTD/svg11.dtd">
<svg version="1.1" id="Layer_1" xmlns="http://www.w3.org/2000/svg" xmlns:xlink="http://www.w3.org/1999/xlink" x="0px" y="0px"
	 width="500px" height="407.393px" viewBox="0 0 500 407.393" enable-background="new 0 0 500 407.393" xml:space="preserve">
<g>
	
		<rect x="98.556" y="291.45" transform="matrix(-0.8466 0.5323 -0.5323 -0.8466 376.9226 478.7665)" fill="#005399" width="41.798" height="4.521"/>
	
		<rect x="93.587" y="282.965" transform="matrix(-0.8782 0.4782 -0.4782 -0.8782 351.4382 480.9673)" fill="#005399" width="41.797" height="4.523"/>
	
		<rect x="89.141" y="274.156" transform="matrix(-0.9066 0.4219 -0.4219 -0.9066 326.4361 480.5935)" fill="#005399" width="41.8" height="4.52"/>
	
		<rect x="85.244" y="265.039" transform="matrix(-0.9314 0.3641 -0.3641 -0.9314 302.3243 477.6047)" fill="#005399" width="41.798" height="4.521"/>
	
		<rect x="81.914" y="255.64" transform="matrix(-0.9528 0.3036 -0.3036 -0.9528 279.0586 472.4211)" fill="#005399" width="41.797" height="4.52"/>
	
		<rect x="79.172" y="245.975" transform="matrix(-0.9703 0.2419 -0.2419 -0.9703 257.2259 464.8854)" fill="#005399" width="41.797" height="4.52"/>
	
		<rect x="77.042" y="236.068" transform="matrix(-0.9839 0.1785 -0.1785 -0.9839 236.8604 455.3424)" fill="#005399" width="41.798" height="4.523"/>
	
		<rect x="75.542" y="225.943" transform="matrix(-0.9935 0.114 -0.114 -0.9935 218.2712 443.9251)" fill="#005399" width="41.797" height="4.523"/>
	
		<rect x="74.697" y="215.619" transform="matrix(-0.9988 0.049 -0.049 -0.9988 201.7447 430.8167)" fill="#005399" width="41.795" height="4.521"/>
	
		<rect x="93.164" y="186.49" transform="matrix(-0.0163 0.9999 -0.9999 -0.0163 304.3407 115.3601)" fill="#005399" width="4.52" height="41.796"/>
	
		<rect x="93.673" y="176.076" transform="matrix(-0.0817 0.9967 -0.9967 -0.0817 300.0898 117.4618)" fill="#005399" width="4.522" height="41.796"/>
	
		<rect x="94.849" y="165.847" transform="matrix(-0.1466 0.9892 -0.9892 -0.1466 296.0715 118.0569)" fill="#005399" width="4.521" height="41.796"/>
	
		<rect x="96.666" y="155.83" transform="matrix(-0.2101 0.9777 -0.9777 -0.2101 292.4955 117.1456)" fill="#005399" width="4.522" height="41.794"/>
	
		<rect x="99.106" y="146.042" transform="matrix(-0.273 0.962 -0.962 -0.273 289.6359 114.9921)" fill="#005399" width="4.52" height="41.795"/>
	
		<rect x="102.144" y="136.507" transform="matrix(-0.334 0.9426 -0.9426 -0.334 287.642 111.5738)" fill="#005399" width="4.521" height="41.796"/>
	
		<rect x="105.762" y="127.246" transform="matrix(-0.3932 0.9195 -0.9195 -0.3932 286.7072 107.072)" fill="#005399" width="4.521" height="41.794"/>
	
		<rect x="109.936" y="118.28" transform="matrix(-0.4504 0.8928 -0.8928 -0.4504 286.9915 101.694)" fill="#005399" width="4.521" height="41.797"/>
	
		<rect x="114.645" y="109.628" transform="matrix(-0.5055 0.8628 -0.8628 -0.5055 288.6233 95.6445)" fill="#005399" width="4.519" height="41.799"/>
	
		<rect x="119.869" y="101.317" transform="matrix(-0.5579 0.8299 -0.8299 -0.5579 291.6904 89.0343)" fill="#005399" width="4.521" height="41.795"/>
	
		<rect x="125.585" y="93.363" transform="matrix(-0.6085 0.7935 -0.7935 -0.6085 296.3132 82.3413)" fill="#005399" width="4.521" height="41.797"/>
	
		<rect x="131.773" y="85.792" transform="matrix(-0.6565 0.7543 -0.7543 -0.6565 302.5042 75.6221)" fill="#005399" width="4.521" height="41.794"/>
	
		<rect x="138.412" y="78.62" transform="matrix(-0.7019 0.7123 -0.7123 -0.7019 310.2945 69.1738)" fill="#005399" width="4.521" height="41.797"/>
	
		<rect x="145.477" y="71.873" transform="matrix(-0.7443 0.6679 -0.6679 -0.7443 319.6558 63.1522)" fill="#005399" width="4.523" height="41.795"/>
	
		<rect x="152.953" y="65.57" transform="matrix(-0.7835 0.6214 -0.6214 -0.7835 330.5531 57.7728)" fill="#005399" width="4.52" height="41.796"/>
	
		<rect x="160.813" y="59.733" transform="matrix(-0.821 0.5709 -0.5709 -0.821 342.9905 53.7245)" fill="#005399" width="4.521" height="41.797"/>
	
		<rect x="169.037" y="54.385" transform="matrix(-0.8547 0.5191 -0.5191 -0.8547 356.7855 50.7049)" fill="#005399" width="4.521" height="41.795"/>
	
		<rect x="177.605" y="49.545" transform="matrix(-0.8859 0.4638 -0.4638 -0.8859 371.8832 49.4256)" fill="#005399" width="4.518" height="41.795"/>
	
		<rect x="186.493" y="45.235" transform="matrix(-0.9129 0.4083 -0.4083 -0.9129 388.0596 49.4401)" fill="#005399" width="4.522" height="41.796"/>
	
		<rect x="195.685" y="41.477" transform="matrix(-0.9372 0.3487 -0.3487 -0.9372 405.2159 51.809)" fill="#005399" width="4.52" height="41.796"/>
	
		<rect x="205.153" y="38.292" transform="matrix(-0.9574 0.2887 -0.2887 -0.9574 423.083 55.9822)" fill="#005399" width="4.521" height="41.796"/>
	
		<rect x="214.878" y="35.7" transform="matrix(-0.9741 0.226 -0.226 -0.9741 441.4518 62.6488)" fill="#005399" width="4.523" height="41.797"/>
	
		<rect x="224.839" y="33.727" transform="matrix(-0.9867 0.1626 -0.1626 -0.9867 460.0593 71.5941)" fill="#005399" width="4.522" height="41.796"/>
	
		<rect x="235.018" y="32.388" transform="matrix(-0.9952 0.098 -0.098 -0.9952 478.6347 83.0669)" fill="#005399" width="4.52" height="41.795"/>
	
		<rect x="245.389" y="31.709" transform="matrix(-0.9994 0.0333 -0.0333 -0.9994 496.9111 96.945)" fill="#005399" width="4.52" height="41.796"/>
	<rect x="250.637" y="346.62" fill="#B888D4" width="4.525" height="41.796"/>
	
		<rect x="221.542" y="364.916" transform="matrix(-0.0654 0.9979 -0.9979 -0.0654 624.678 149.2523)" fill="#B888D4" width="41.798" height="4.521"/>
	
		<rect x="211.267" y="363.907" transform="matrix(-0.1304 0.9915 -0.9915 -0.1304 625.4851 183.747)" fill="#B888D4" width="41.795" height="4.518"/>
	
		<rect x="201.193" y="362.245" transform="matrix(-0.1943 0.9809 -0.9809 -0.1943 622.8075 217.484)" fill="#B888D4" width="41.797" height="4.52"/>
	
		<rect x="191.348" y="359.959" transform="matrix(-0.2579 0.9662 -0.9662 -0.2579 616.9452 250.5512)" fill="#B888D4" width="41.796" height="4.522"/>
	
		<rect x="181.747" y="357.069" transform="matrix(-0.3187 0.9479 -0.9479 -0.3187 607.8213 281.7679)" fill="#B888D4" width="41.798" height="4.522"/>
	
		<rect x="172.415" y="353.594" transform="matrix(-0.3785 0.9256 -0.9256 -0.3785 595.861 311.6149)" fill="#B888D4" width="41.796" height="4.521"/>
	
		<rect x="163.373" y="349.557" transform="matrix(-0.4362 0.8999 -0.8999 -0.4362 581.2337 339.4655)" fill="#B888D4" width="41.796" height="4.523"/>
	
		<rect x="154.642" y="344.982" transform="matrix(-0.4923 0.8704 -0.8704 -0.4923 564.206 365.3796)" fill="#B888D4" width="41.796" height="4.519"/>
	
		<rect x="146.244" y="339.883" transform="matrix(-0.5448 0.8386 -0.8386 -0.5448 545.1127 388.3619)" fill="#B888D4" width="41.795" height="4.521"/>
	
		<rect x="138.199" y="334.288" transform="matrix(-0.5964 0.8027 -0.8027 -0.5964 524.1192 409.5777)" fill="#B888D4" width="41.793" height="4.519"/>
	
		<rect x="130.527" y="328.215" transform="matrix(-0.6445 0.7646 -0.7646 -0.6445 501.7021 427.6899)" fill="#B888D4" width="41.798" height="4.521"/>
	
		<rect x="123.255" y="321.687" transform="matrix(-0.6907 0.7232 -0.7232 -0.6907 477.9874 443.4356)" fill="#B888D4" width="41.797" height="4.521"/>
	
		<rect x="116.399" y="314.727" transform="matrix(-0.7342 0.679 -0.679 -0.7342 453.3201 456.488)" fill="#B888D4" width="41.796" height="4.52"/>
	
		<rect x="109.984" y="307.351" transform="matrix(-0.7742 0.633 -0.633 -0.7742 428.1846 466.4597)" fill="#B888D4" width="41.796" height="4.522"/>
	
		<rect x="104.029" y="299.587" transform="matrix(-0.8119 0.5837 -0.5837 -0.8119 402.5598 474.0062)" fill="#B888D4" width="41.797" height="4.521"/>
	
		<rect x="237.252" y="50.346" transform="matrix(-0.0332 0.9995 -0.9995 -0.0332 319.2873 -203.6574)" fill="#B888D4" width="41.796" height="4.521"/>
	
		<rect x="247.623" y="51.025" transform="matrix(-0.098 0.9952 -0.9952 -0.098 347.8571 -208.7237)" fill="#B888D4" width="41.795" height="4.52"/>
	
		<rect x="257.802" y="52.365" transform="matrix(-0.1628 0.9867 -0.9867 -0.1628 377.9578 -211.4684)" fill="#B888D4" width="41.796" height="4.519"/>
	
		<rect x="267.763" y="54.336" transform="matrix(-0.2259 0.9741 -0.9741 -0.2259 409.0077 -211.8146)" fill="#B888D4" width="41.797" height="4.524"/>
	
		<rect x="277.489" y="56.929" transform="matrix(-0.2886 0.9574 -0.9574 -0.2886 441.1786 -209.4169)" fill="#B888D4" width="41.797" height="4.521"/>
	
		<rect x="286.956" y="60.114" transform="matrix(-0.3495 0.937 -0.937 -0.3495 473.8777 -204.2751)" fill="#B888D4" width="41.798" height="4.519"/>
	
		<rect x="296.149" y="63.872" transform="matrix(-0.4081 0.9129 -0.9129 -0.4081 506.8221 -196.3119)" fill="#B888D4" width="41.795" height="4.522"/>
	
		<rect x="305.039" y="68.183" transform="matrix(-0.4638 0.8859 -0.8859 -0.4638 539.5228 -185.6376)" fill="#B888D4" width="41.795" height="4.519"/>
	
		<rect x="313.605" y="73.023" transform="matrix(-0.5194 0.8545 -0.8545 -0.5194 572.5706 -171.4644)" fill="#B888D4" width="41.796" height="4.518"/>
	
		<rect x="321.827" y="78.372" transform="matrix(-0.5711 0.8209 -0.8209 -0.5711 604.6505 -154.6516)" fill="#B888D4" width="41.797" height="4.519"/>
	
		<rect x="329.69" y="84.208" transform="matrix(-0.6213 0.7836 -0.7836 -0.6213 636.156 -134.527)" fill="#B888D4" width="41.796" height="4.52"/>
	
		<rect x="337.163" y="90.51" transform="matrix(-0.6679 0.7442 -0.7442 -0.6679 666.2637 -111.7428)" fill="#B888D4" width="41.796" height="4.523"/>
	
		<rect x="344.229" y="97.258" transform="matrix(-0.7125 0.7016 -0.7016 -0.7125 695.124 -85.7532)" fill="#B888D4" width="41.798" height="4.52"/>
	
		<rect x="350.868" y="104.429" transform="matrix(-0.7544 0.6564 -0.6564 -0.7544 722.2517 -56.8684)" fill="#B888D4" width="41.794" height="4.52"/>
	
		<rect x="357.057" y="112.002" transform="matrix(-0.7931 0.6091 -0.6091 -0.7931 747.3148 -25.3089)" fill="#B888D4" width="41.797" height="4.52"/>
	
		<rect x="362.774" y="119.954" transform="matrix(-0.8303 0.5574 -0.5574 -0.8303 770.3376 9.8308)" fill="#B888D4" width="41.796" height="4.52"/>
	
		<rect x="367.995" y="128.267" transform="matrix(-0.8628 0.5055 -0.5055 -0.8628 790.4221 46.5515)" fill="#B888D4" width="41.799" height="4.52"/>
	<polygon fill="#B888D4" points="411.248,127.748 413.279,131.784 375.961,150.608 373.931,146.572 	"/>
	
		<rect x="376.879" y="145.884" transform="matrix(-0.9195 0.3932 -0.3932 -0.9195 821.7661 127.9506)" fill="#B888D4" width="41.797" height="4.52"/>
	
		<rect x="380.497" y="155.144" transform="matrix(-0.9425 0.3342 -0.3342 -0.9425 832.3128 171.6281)" fill="#B888D4" width="41.793" height="4.521"/>
	
		<rect x="383.536" y="164.68" transform="matrix(-0.9622 0.2723 -0.2723 -0.9622 839.0408 217.4661)" fill="#B888D4" width="41.796" height="4.519"/>
	
		<rect x="385.975" y="174.466" transform="matrix(-0.9777 0.2102 -0.2102 -0.9777 841.7986 264.0028)" fill="#B888D4" width="41.795" height="4.522"/>
	
		<rect x="387.794" y="184.485" transform="matrix(-0.9894 0.1455 -0.1455 -0.9894 840.2102 312.0173)" fill="#B888D4" width="41.794" height="4.52"/>
	
		<rect x="388.968" y="194.713" transform="matrix(-0.9967 0.0806 -0.0806 -0.9967 834.2803 360.2576)" fill="#B888D4" width="41.796" height="4.522"/>
	
		<rect x="389.478" y="205.128" transform="matrix(-0.9999 0.0159 -0.0159 -0.9999 823.999 408.2203)" fill="#B888D4" width="41.795" height="4.52"/>
	
		<rect x="407.945" y="196.982" transform="matrix(-0.0486 0.9988 -0.9988 -0.0486 647.761 -181.2546)" fill="#B888D4" width="4.522" height="41.795"/>
	
		<rect x="407.098" y="207.306" transform="matrix(-0.1151 0.9934 -0.9934 -0.1151 683.1559 -152.1747)" fill="#B888D4" width="4.523" height="41.798"/>
	
		<rect x="405.598" y="217.431" transform="matrix(-0.1784 0.984 -0.984 -0.1784 715.1102 -120.483)" fill="#B888D4" width="4.523" height="41.798"/>
	
		<rect x="403.47" y="227.339" transform="matrix(-0.2419 0.9703 -0.9703 -0.2419 744.749 -85.3877)" fill="#B888D4" width="4.521" height="41.795"/>
	
		<rect x="400.728" y="237.003" transform="matrix(-0.3038 0.9527 -0.9527 -0.3038 771.1316 -47.6843)" fill="#B888D4" width="4.519" height="41.793"/>
	
		<rect x="397.397" y="246.403" transform="matrix(-0.3642 0.9313 -0.9313 -0.3642 794.1626 -7.5467)" fill="#B888D4" width="4.52" height="41.794"/>
	
		<rect x="393.5" y="255.517" transform="matrix(-0.422 0.9066 -0.9066 -0.422 813.367 34.2627)" fill="#B888D4" width="4.522" height="41.8"/>
	
		<rect x="389.052" y="264.328" transform="matrix(-0.4792 0.8777 -0.8777 -0.4792 829.1808 78.4557)" fill="#B888D4" width="4.524" height="41.798"/>
	
		<rect x="384.088" y="272.812" transform="matrix(-0.5328 0.8463 -0.8463 -0.5328 840.7386 123.2424)" fill="#B888D4" width="4.52" height="41.798"/>
	
		<rect x="378.612" y="280.949" transform="matrix(-0.5845 0.8114 -0.8114 -0.5845 848.408 169.2275)" fill="#B888D4" width="4.523" height="41.796"/>
	<polygon fill="#B888D4" points="392.53,321.086 389.672,324.585 357.303,298.14 360.168,294.638 	"/>
	
		<rect x="366.242" y="296.09" transform="matrix(-0.6793 0.7339 -0.7339 -0.6793 851.4502 261.863)" fill="#B888D4" width="4.523" height="41.795"/>
	
		<rect x="359.386" y="303.05" transform="matrix(-0.7232 0.6906 -0.6906 -0.7232 846.9222 308.4753)" fill="#B888D4" width="4.522" height="41.795"/>
	
		<rect x="352.113" y="309.576" transform="matrix(-0.7646 0.6445 -0.6445 -0.7646 838.3209 354.7598)" fill="#B888D4" width="4.521" height="41.799"/>
	
		<rect x="344.445" y="315.65" transform="matrix(-0.8032 0.5958 -0.5958 -0.8032 825.6694 400.2882)" fill="#B888D4" width="4.521" height="41.795"/>
	
		<rect x="336.398" y="321.246" transform="matrix(-0.8388 0.5444 -0.5444 -0.8388 809.0023 444.7532)" fill="#B888D4" width="4.522" height="41.795"/>
	
		<rect x="328" y="326.343" transform="matrix(-0.8708 0.4916 -0.4916 -0.8708 788.5566 487.2948)" fill="#B888D4" width="4.524" height="41.797"/>
	
		<rect x="319.267" y="330.921" transform="matrix(-0.8998 0.4363 -0.4363 -0.8998 764.3385 528.1031)" fill="#B888D4" width="4.524" height="41.796"/>
	
		<rect x="310.227" y="334.957" transform="matrix(-0.9256 0.3785 -0.3785 -0.9256 736.4242 566.9427)" fill="#B888D4" width="4.52" height="41.795"/>
	
		<rect x="300.893" y="338.43" transform="matrix(-0.9479 0.3185 -0.3185 -0.9479 704.9669 603.3931)" fill="#B888D4" width="4.523" height="41.798"/>
	
		<rect x="291.293" y="341.322" transform="matrix(-0.9662 0.2579 -0.2579 -0.9662 670.5939 636.478)" fill="#B888D4" width="4.521" height="41.796"/>
	
		<rect x="281.45" y="343.606" transform="matrix(-0.981 0.1942 -0.1942 -0.981 632.8196 666.9575)" fill="#B888D4" width="4.52" height="41.798"/>
	
		<rect x="271.376" y="345.268" transform="matrix(-0.9915 0.1304 -0.1304 -0.9915 592.6696 693.5338)" fill="#B888D4" width="4.517" height="41.795"/>
	
		<rect x="261.102" y="346.277" transform="matrix(-0.9979 0.0655 -0.0655 -0.9979 550.1974 716.3219)" fill="#B888D4" width="4.519" height="41.798"/>
	<rect x="250.637" y="346.62" fill="#B888D4" width="4.525" height="41.796"/>
	<path fill="none" stroke="#707070" stroke-width="0.6224" stroke-miterlimit="10" d="M377.386,210.089
		c0-68.736-55.722-124.458-124.454-124.458c-68.733,0-124.456,55.722-124.456,124.458c0,68.733,55.722,124.455,124.456,124.455
		C321.664,334.544,377.386,278.822,377.386,210.089z"/>
	<path fill="#B889D5" d="M24.926,107.678h-3.443c-1.141,0-2.062-0.925-2.062-2.069c0-1.14,0.921-2.066,2.062-2.066h3.443
		c1.14,0,2.065,0.926,2.065,2.066C26.991,106.753,26.066,107.678,24.926,107.678z"/>
	<path fill="#B889D5" d="M37.813,107.678h-3.439c-1.14,0-2.069-0.925-2.069-2.069c0-1.14,0.929-2.066,2.069-2.066h3.439
		c1.141,0,2.07,0.926,2.07,2.066C39.883,106.753,38.955,107.678,37.813,107.678z"/>
	<path fill="#B889D5" d="M29.652,102.949c-1.14,0-2.069-0.925-2.069-2.065v-3.439c0-1.141,0.929-2.066,2.069-2.066
		s2.069,0.925,2.069,2.066v3.439C31.721,102.023,30.792,102.949,29.652,102.949z"/>
	<path fill="#B889D5" d="M29.652,115.836c-1.14,0-2.069-0.925-2.069-2.065v-3.432c0-1.151,0.929-2.076,2.069-2.076
		s2.069,0.925,2.069,2.076v3.432C31.721,114.911,30.792,115.836,29.652,115.836z"/>
	<path fill="#B889D5" d="M441.52,211.431h-3.439c-1.144,0-2.068-0.925-2.068-2.065c0-1.144,0.925-2.065,2.068-2.065h3.439
		c1.144,0,2.068,0.922,2.068,2.065C443.588,210.506,442.663,211.431,441.52,211.431z"/>
	<path fill="#B889D5" d="M454.407,211.431h-3.438c-1.145,0-2.065-0.925-2.065-2.065c0-1.144,0.921-2.065,2.065-2.065h3.438
		c1.141,0,2.069,0.922,2.069,2.065C456.477,210.506,455.548,211.431,454.407,211.431z"/>
	<path fill="#B889D5" d="M446.246,206.712c-1.147,0-2.073-0.933-2.073-2.076v-3.429c0-1.144,0.926-2.076,2.073-2.076
		c1.14,0,2.068,0.933,2.068,2.076v3.429C448.314,205.779,447.386,206.712,446.246,206.712z"/>
	<path fill="#B889D5" d="M446.246,219.596c-1.147,0-2.073-0.922-2.073-2.065v-3.438c0-1.141,0.926-2.073,2.073-2.073
		c1.14,0,2.068,0.933,2.068,2.073v3.438C448.314,218.674,447.386,219.596,446.246,219.596z"/>
	<path fill="#B889D5" d="M365.717,14.924h-3.436c-1.144,0-2.069-0.926-2.069-2.066s0.926-2.065,2.069-2.065h3.436
		c1.144,0,2.069,0.925,2.069,2.065S366.86,14.924,365.717,14.924z"/>
	<path fill="#B889D5" d="M378.608,14.924h-3.442c-1.145,0-2.069-0.926-2.069-2.066s0.925-2.065,2.069-2.065h3.442
		c1.137,0,2.068,0.925,2.068,2.065S379.745,14.924,378.608,14.924z"/>
	<path fill="#B889D5" d="M370.439,10.205c-1.144,0-2.069-0.925-2.069-2.073V4.701c0-1.144,0.926-2.076,2.069-2.076
		s2.069,0.932,2.069,2.076v3.432C372.509,9.28,371.583,10.205,370.439,10.205z"/>
	<path fill="#B889D5" d="M370.439,23.093c-1.144,0-2.069-0.925-2.069-2.077v-3.432c0-1.14,0.926-2.065,2.069-2.065
		s2.069,0.925,2.069,2.065v3.432C372.509,22.168,371.583,23.093,370.439,23.093z"/>
	<path fill="#B889D5" d="M11.464,337.513H8.029c-1.14,0-2.069-0.925-2.069-2.069c0-1.14,0.929-2.065,2.069-2.065h3.436
		c1.144,0,2.069,0.926,2.069,2.065C13.533,336.588,12.608,337.513,11.464,337.513z"/>
	<path fill="#B889D5" d="M24.352,337.513h-3.435c-1.141,0-2.069-0.925-2.069-2.069c0-1.14,0.929-2.065,2.069-2.065h3.435
		c1.148,0,2.077,0.926,2.077,2.065C26.429,336.588,25.5,337.513,24.352,337.513z"/>
	<path fill="#B889D5" d="M16.187,332.797c-1.136,0-2.069-0.932-2.069-2.072v-3.438c0-1.145,0.933-2.066,2.069-2.066
		c1.145,0,2.07,0.922,2.07,2.066v3.438C18.256,331.865,17.331,332.797,16.187,332.797z"/>
	<path fill="#B889D5" d="M16.187,345.682c-1.136,0-2.069-0.926-2.069-2.069v-3.438c0-1.141,0.933-2.065,2.069-2.065
		c1.145,0,2.07,0.925,2.07,2.065v3.438C18.256,344.756,17.331,345.682,16.187,345.682z"/>
	<path fill="#B889D5" d="M43.648,230.576h-2.446c-0.76,0-1.377-0.624-1.377-1.381c0-0.768,0.617-1.384,1.377-1.384h2.446
		c0.763,0,1.38,0.616,1.38,1.384C45.029,229.952,44.412,230.576,43.648,230.576z"/>
	<path fill="#B889D5" d="M52.835,230.576h-2.456c-0.76,0-1.374-0.624-1.374-1.381c0-0.768,0.613-1.384,1.374-1.384h2.456
		c0.768,0,1.381,0.616,1.381,1.384C54.216,229.952,53.603,230.576,52.835,230.576z"/>
	<path fill="#B889D5" d="M47.023,227.209c-0.76,0-1.381-0.613-1.381-1.377v-2.46c0-0.764,0.621-1.381,1.381-1.381
		s1.38,0.617,1.38,1.381v2.46C48.403,226.596,47.783,227.209,47.023,227.209z"/>
	<path fill="#B889D5" d="M47.023,236.389c-0.76,0-1.381-0.616-1.381-1.38v-2.449c0-0.765,0.621-1.381,1.381-1.381
		s1.38,0.616,1.38,1.381v2.449C48.403,235.772,47.783,236.389,47.023,236.389z"/>
	<path fill="#B889D5" d="M75.323,378.92h-2.446c-0.764,0-1.38-0.617-1.38-1.381s0.616-1.377,1.38-1.377h2.446
		c0.76,0,1.38,0.613,1.38,1.377S76.083,378.92,75.323,378.92z"/>
	<path fill="#B889D5" d="M84.51,378.92h-2.453c-0.768,0-1.38-0.617-1.38-1.381s0.613-1.377,1.38-1.377h2.453
		c0.76,0,1.376,0.613,1.376,1.377S85.271,378.92,84.51,378.92z"/>
	<path fill="#B889D5" d="M78.69,375.56c-0.76,0-1.377-0.617-1.377-1.38v-2.461c0-0.764,0.617-1.38,1.377-1.38
		c0.764,0,1.384,0.616,1.384,1.38v2.461C80.074,374.942,79.454,375.56,78.69,375.56z"/>
	<path fill="#B889D5" d="M78.69,384.739c-0.76,0-1.377-0.616-1.377-1.38v-2.457c0-0.756,0.617-1.373,1.377-1.373
		c0.764,0,1.384,0.617,1.384,1.373v2.457C80.074,384.123,79.454,384.739,78.69,384.739z"/>
	<path fill="#B889D5" d="M246.739,7.156h-2.04c-0.637,0-1.151-0.515-1.151-1.152c0-0.637,0.514-1.148,1.151-1.148h2.04
		c0.634,0,1.151,0.511,1.151,1.148C247.89,6.642,247.373,7.156,246.739,7.156z"/>
	<path fill="#B889D5" d="M254.4,7.156h-2.046c-0.64,0-1.151-0.515-1.151-1.152c0-0.637,0.512-1.148,1.151-1.148h2.046
		c0.634,0,1.148,0.511,1.148,1.148C255.549,6.642,255.034,7.156,254.4,7.156z"/>
	<path fill="#B889D5" d="M249.546,4.354c-0.634,0-1.148-0.514-1.148-1.151V1.151c0-0.637,0.515-1.151,1.148-1.151
		c0.637,0,1.154,0.514,1.154,1.151v2.051C250.701,3.839,250.184,4.354,249.546,4.354z"/>
	<path fill="#B889D5" d="M249.546,12.009c-0.634,0-1.148-0.514-1.148-1.151V8.81c0-0.631,0.515-1.146,1.148-1.146
		c0.637,0,1.154,0.515,1.154,1.146v2.049C250.701,11.495,250.184,12.009,249.546,12.009z"/>
	<path fill="#B889D5" d="M422.504,400.374h-2.962c-0.911,0-1.653-0.742-1.653-1.652c0-0.918,0.742-1.653,1.653-1.653h2.962
		c0.911,0,1.653,0.735,1.653,1.653C424.157,399.632,423.415,400.374,422.504,400.374z"/>
	<path fill="#B889D5" d="M433.581,400.374h-2.958c-0.911,0-1.653-0.742-1.653-1.652c0-0.918,0.742-1.653,1.653-1.653h2.958
		c0.914,0,1.656,0.735,1.656,1.653C435.237,399.632,434.495,400.374,433.581,400.374z"/>
	<path fill="#B889D5" d="M426.567,396.312c-0.915,0-1.653-0.741-1.653-1.653v-2.955c0-0.917,0.738-1.659,1.653-1.659
		c0.91,0,1.652,0.742,1.652,1.659v2.955C428.22,395.57,427.478,396.312,426.567,396.312z"/>
	<path fill="#B889D5" d="M426.567,407.393c-0.915,0-1.653-0.743-1.653-1.653v-2.966c0-0.91,0.738-1.646,1.653-1.646
		c0.91,0,1.652,0.736,1.652,1.646v2.966C428.22,406.649,427.478,407.393,426.567,407.393z"/>
	<path fill="#B889D5" d="M480.938,123.869h-2.137c-0.765,0-1.385-0.616-1.385-1.38c0-0.764,0.62-1.376,1.385-1.376h2.137
		c0.757,0,1.373,0.613,1.373,1.376C482.311,123.252,481.694,123.869,480.938,123.869z"/>
	<path fill="#B889D5" d="M488.938,123.869h-2.13c-0.765,0-1.378-0.616-1.378-1.38c0-0.764,0.613-1.376,1.378-1.376h2.13
		c0.76,0,1.377,0.613,1.377,1.376C490.314,123.252,489.697,123.869,488.938,123.869z"/>
	<path fill="#B889D5" d="M483.87,120.936c-0.763,0-1.376-0.616-1.376-1.38v-2.138c0-0.756,0.613-1.376,1.376-1.376
		c0.765,0,1.381,0.621,1.381,1.376v2.138C485.251,120.319,484.635,120.936,483.87,120.936z"/>
	<path fill="#B889D5" d="M483.87,128.939c-0.763,0-1.376-0.617-1.376-1.38v-2.134c0-0.764,0.613-1.38,1.376-1.38
		c0.765,0,1.381,0.616,1.381,1.38v2.134C485.251,128.322,484.635,128.939,483.87,128.939z"/>
	<path fill="#B889D5" d="M144.611,25.499h-2.137c-0.764,0-1.385-0.62-1.385-1.377c0-0.771,0.621-1.38,1.385-1.38h2.137
		c0.76,0,1.377,0.61,1.377,1.38C145.988,24.879,145.371,25.499,144.611,25.499z"/>
	<path fill="#B889D5" d="M152.611,25.499h-2.134c-0.76,0-1.373-0.62-1.373-1.377c0-0.771,0.613-1.38,1.373-1.38h2.134
		c0.764,0,1.377,0.61,1.377,1.38C153.988,24.879,153.375,25.499,152.611,25.499z"/>
	<path fill="#B889D5" d="M147.544,22.559c-0.764,0-1.38-0.617-1.38-1.381v-2.126c0-0.764,0.617-1.381,1.38-1.381
		s1.384,0.617,1.384,1.381v2.126C148.928,21.942,148.308,22.559,147.544,22.559z"/>
	<path fill="#B889D5" d="M147.544,30.566c-0.764,0-1.38-0.616-1.38-1.38v-2.13c0-0.763,0.617-1.38,1.38-1.38s1.384,0.617,1.384,1.38
		v2.13C148.928,29.95,148.308,30.566,147.544,30.566z"/>
	<path fill="#B889D5" d="M72.242,171.588H32.593c-0.764,0-1.377-0.617-1.377-1.382c0-0.756,0.613-1.373,1.377-1.373h39.649
		c0.764,0,1.38,0.617,1.38,1.373C73.623,170.971,73.006,171.588,72.242,171.588z"/>
	<path fill="#B889D5" d="M22.573,171.588h-6.387c-0.76,0-1.376-0.617-1.376-1.382c0-0.756,0.617-1.373,1.376-1.373h6.387
		c0.76,0,1.377,0.617,1.377,1.373C23.951,170.971,23.333,171.588,22.573,171.588z"/>
	<path fill="#B889D5" d="M6.168,171.588H2.524c-0.764,0-1.384-0.617-1.384-1.382c0-0.756,0.62-1.373,1.384-1.373h3.644
		c0.767,0,1.38,0.617,1.38,1.373C7.548,170.971,6.935,171.588,6.168,171.588z"/>
	<path fill="#B889D5" d="M57.429,181.209H17.79c-0.764,0-1.385-0.618-1.385-1.374c0-0.76,0.621-1.377,1.385-1.377h39.639
		c0.764,0,1.381,0.617,1.381,1.377C58.81,180.591,58.193,181.209,57.429,181.209z"/>
	<path fill="#B889D5" d="M7.763,181.209H1.384c-0.768,0-1.384-0.618-1.384-1.374c0-0.76,0.616-1.377,1.384-1.377h6.379
		c0.757,0,1.377,0.617,1.377,1.377C9.141,180.591,8.52,181.209,7.763,181.209z"/>
	<path fill="#B889D5" d="M467.407,318.425h-39.639c-0.764,0-1.385-0.624-1.385-1.381c0-0.764,0.621-1.38,1.385-1.38h39.639
		c0.768,0,1.385,0.616,1.385,1.38C468.792,317.801,468.175,318.425,467.407,318.425z"/>
	<path fill="#B889D5" d="M483.81,318.425h-6.38c-0.76,0-1.38-0.624-1.38-1.381c0-0.764,0.62-1.38,1.38-1.38h6.38
		c0.76,0,1.377,0.616,1.377,1.38C485.187,317.801,484.569,318.425,483.81,318.425z"/>
	<path fill="#B889D5" d="M497.482,318.425h-3.646c-0.764,0-1.377-0.624-1.377-1.381c0-0.764,0.613-1.38,1.377-1.38h3.646
		c0.761,0,1.377,0.616,1.377,1.38C498.859,317.801,498.243,318.425,497.482,318.425z"/>
	<path fill="#B889D5" d="M482.217,308.793h-39.639c-0.764,0-1.381-0.616-1.381-1.369c0-0.765,0.617-1.381,1.381-1.381h39.639
		c0.761,0,1.381,0.616,1.381,1.381C483.598,308.177,482.978,308.793,482.217,308.793z"/>
	<path fill="#B889D5" d="M498.62,308.793h-6.376c-0.761,0-1.381-0.616-1.381-1.369c0-0.765,0.62-1.381,1.381-1.381h6.376
		c0.764,0,1.38,0.616,1.38,1.381C500,308.177,499.384,308.793,498.62,308.793z"/>
</g>
</svg>
